<?xml version="1.0" encoding="UTF-8"?><svg id="Layer_2" xmlns="http://www.w3.org/2000/svg" viewBox="0 0 508.23 150.78"><defs><style>.cls-1{fill:#fdfffe;}.cls-2{fill:#4ad812;}</style></defs><g id="Layer_1-2"><g><g><polygon class="cls-1" points="77.15 150.78 38.2 105.22 25.3 118.23 25.3 150.78 0 150.78 0 0 25.3 0 25.3 82.69 66.79 40.31 101.77 40.31 55.59 87.74 108.89 150.78 77.15 150.78"/><path class="cls-1" d="M98.25,41.8l-44.66,45.88,52.1,61.62h-27.86l-39.56-46.26-14.46,14.59v31.67H1.49V1.49H23.82V86.33l43.6-44.53h30.84Z"/></g><g><path class="cls-1" d="M181.15,150.78v-10.53c-9.32,6.99-20.04,10.53-31.9,10.53-14.96,0-27.9-5.42-38.48-16.12-10.62-10.73-16.01-23.89-16.01-39.11s5.39-28.37,16.01-39.11c10.58-10.7,23.53-16.12,38.48-16.12,11.74,0,22.46,3.49,31.9,10.38v-10.38h22.59v110.47h-22.59Zm-31.9-87.34c-8.74,0-16.33,3.17-22.57,9.41-6.2,6.2-9.34,13.84-9.34,22.7s3.14,16.34,9.34,22.6c6.23,6.31,13.82,9.5,22.56,9.5s16.48-3.2,22.65-9.5c6.14-6.26,9.25-13.87,9.25-22.61s-3.11-16.5-9.25-22.7c-6.17-6.24-13.8-9.41-22.66-9.41Z"/><path class="cls-1" d="M182.48,53.51v-11.71h19.94v107.5h-19.94v-11.9c-9.62,7.94-20.7,11.9-33.23,11.9-14.69,0-27.22-5.25-37.6-15.74-10.38-10.49-15.57-23.16-15.57-38.01s5.19-27.51,15.57-38.01c10.38-10.49,22.91-15.74,37.6-15.74,12.4,0,23.48,3.91,33.23,11.71Zm-33.23,75.63c9.24,0,17.09-3.29,23.54-9.89,6.46-6.59,9.68-14.49,9.68-23.71s-3.23-17.28-9.68-23.8c-6.46-6.53-14.31-9.79-23.54-9.79s-16.93,3.26-23.45,9.79c-6.52,6.53-9.78,14.46-9.78,23.8s3.26,17.12,9.78,23.71c6.52,6.59,14.34,9.89,23.45,9.89Z"/></g><g><path class="cls-1" d="M365,150.78v-58.59c0-7.07-2.51-13.27-7.47-18.44-4.96-5.16-11.03-7.78-18.03-7.78s-13.12,2.59-18.15,7.71c-5.07,5.17-7.54,11.22-7.54,18.51v58.59h-24.84v-58.59c0-7.07-2.51-13.27-7.47-18.44-4.96-5.16-11.03-7.78-18.03-7.78s-13.12,2.59-18.15,7.71c-5.07,5.17-7.54,11.22-7.54,18.51v58.59h-24.84V40.31h24.84v7.13c7.84-4.74,16.47-7.13,25.68-7.13,8.02,0,15.65,1.86,22.67,5.54,5.88,3.08,11.02,7.2,15.31,12.25,4.21-5.05,9.31-9.17,15.19-12.25,7.02-3.68,14.71-5.54,22.85-5.54,13.77,0,25.72,5.12,35.54,15.23,9.83,10.12,14.81,22.45,14.81,36.65v58.59h-24.84Z"/><path class="cls-1" d="M366.65,149.17v-56.98c0-7.49-2.66-14.06-7.92-19.53-5.28-5.5-11.76-8.29-19.24-8.29s-13.99,2.76-19.34,8.21c-5.38,5.48-8,11.9-8,19.61v56.98h-21.54v-56.98c0-7.49-2.66-14.06-7.92-19.53-5.28-5.5-11.76-8.29-19.24-8.29s-13.99,2.76-19.34,8.21c-5.38,5.48-8,11.9-8,19.61v56.98h-21.54V41.92h21.54v8.52c8.25-5.66,17.43-8.52,27.34-8.52,7.75,0,15.11,1.8,21.89,5.35,6.3,3.3,11.71,7.82,16.11,13.44,4.3-5.62,9.66-10.14,15.96-13.44,6.78-3.55,14.2-5.35,22.07-5.35,13.29,0,24.84,4.95,34.34,14.72,9.53,9.81,14.36,21.77,14.36,35.55v56.98h-21.54Z"/><path class="cls-1" d="M366.26,149.34v-57.15c0-7.49-2.65-14.05-7.88-19.5-5.27-5.49-11.45-8.16-18.88-8.16s-13.65,2.64-18.99,8.08c-5.28,5.38-7.96,11.97-7.96,19.58v57.15h-22.31v-57.15c0-7.49-2.65-14.05-7.88-19.5-5.27-5.49-11.45-8.16-18.88-8.16s-13.65,2.64-18.99,8.08c-5.28,5.38-7.96,11.97-7.96,19.58v57.15h-22.31V41.75h22.31v8.14c8.15-5.4,17.2-8.14,26.95-8.14,7.84,0,15.29,1.82,22.15,5.41,6.17,3.24,11.5,7.62,15.85,13.06,4.26-5.44,9.53-9.82,15.7-13.06,6.85-3.59,14.37-5.41,22.33-5.41,13.44,0,25.11,5,34.69,14.86,9.55,9.83,14.39,21.8,14.39,35.58v57.15h-22.31Z"/><path class="cls-1" d="M339.49,43.36c13.03,0,24.19,4.79,33.49,14.35,9.29,9.57,13.94,21.06,13.94,34.48v55.54h-19.01v-55.54c0-7.95-2.78-14.82-8.33-20.6-5.55-5.78-12.25-8.67-20.09-8.67s-14.57,2.86-20.18,8.57c-5.61,5.72-8.42,12.61-8.42,20.69v55.54h-19.01v-55.54c0-7.95-2.78-14.82-8.33-20.6-5.55-5.78-12.25-8.67-20.09-8.67s-14.57,2.86-20.18,8.57c-5.61,5.72-8.42,12.61-8.42,20.69v55.54h-19.01V43.36h19.01v9.69c8.57-6.46,18.1-9.69,28.6-9.69,7.6,0,14.72,1.74,21.36,5.22,6.64,3.48,12.19,8.27,16.65,14.35,4.34-6.09,9.83-10.87,16.47-14.35,6.64-3.48,13.82-5.22,21.54-5.22Z"/></g><g><rect class="cls-2" x="397.76" y="128.19" width="110.47" height="22.59"/><path class="cls-1" d="M453.02,64.84c17.34,0,31.44,13.95,31.44,31.09s-14.11,31.09-31.44,31.09-31.44-13.95-31.44-31.09,14.11-31.09,31.44-31.09m0-23.76c-30.49,0-55.21,24.56-55.21,54.85s24.72,54.85,55.21,54.85,55.21-24.56,55.21-54.85-24.72-54.85-55.21-54.85h0Z"/></g></g></g></svg>