<?xml version="1.0" encoding="UTF-8"?><svg id="Layer_2" xmlns="http://www.w3.org/2000/svg" viewBox="0 0 925.56 300.54"><defs><style>.cls-1{fill:#fdfffe;}.cls-2{fill:#4ad812;}</style></defs><g id="Layer_1-2"><g><g><g><polygon class="cls-1" points="491.13 231.58 451.88 185.67 438.88 198.78 438.88 231.58 413.38 231.58 413.38 79.63 438.88 79.63 438.88 162.96 480.69 120.25 515.94 120.25 469.41 168.06 523.12 231.58 491.13 231.58"/><path class="cls-1" d="M512.4,121.75l-45.01,46.24,52.51,62.1h-28.08l-39.86-46.62-14.57,14.7v31.92h-22.5V81.13h22.5v85.51l43.94-44.88h31.08Z"/></g><g><path class="cls-1" d="M595.94,231.58v-10.61c-9.4,7.04-20.2,10.61-32.15,10.61-15.07,0-28.12-5.47-38.78-16.25-10.7-10.82-16.13-24.08-16.13-39.41s5.43-28.59,16.13-39.41c10.67-10.78,23.71-16.25,38.78-16.25,11.84,0,22.64,3.52,32.15,10.46v-10.46h22.76v111.33h-22.76Zm-32.15-88.02c-8.8,0-16.46,3.19-22.74,9.48-6.24,6.25-9.41,13.94-9.41,22.87s3.17,16.47,9.41,22.78c6.28,6.36,13.93,9.58,22.74,9.58s16.61-3.22,22.83-9.57c6.19-6.31,9.32-13.98,9.32-22.78s-3.14-16.63-9.32-22.88c-6.22-6.29-13.91-9.48-22.83-9.48Z"/><path class="cls-1" d="M597.28,133.55v-11.8h20.09v108.33h-20.09v-11.99c-9.7,8-20.86,11.99-33.49,11.99-14.8,0-27.43-5.29-37.89-15.86-10.46-10.57-15.69-23.34-15.69-38.3s5.23-27.73,15.69-38.3c10.46-10.57,23.09-15.86,37.89-15.86,12.5,0,23.66,3.94,33.49,11.8Zm-33.49,76.22c9.31,0,17.22-3.32,23.73-9.96,6.51-6.64,9.76-14.61,9.76-23.89s-3.25-17.41-9.76-23.99c-6.51-6.58-14.42-9.87-23.73-9.87s-17.06,3.29-23.63,9.87c-6.57,6.58-9.85,14.57-9.85,23.99s3.28,17.25,9.85,23.89c6.57,6.64,14.45,9.96,23.63,9.96Z"/></g><g><path class="cls-1" d="M781.22,231.58v-59.04c0-7.13-2.53-13.38-7.53-18.58-5-5.2-11.11-7.84-18.17-7.84s-13.22,2.61-18.29,7.77c-5.11,5.21-7.6,11.31-7.6,18.65v59.04h-25.04v-59.04c0-7.13-2.53-13.38-7.53-18.58-5-5.2-11.11-7.84-18.17-7.84s-13.22,2.61-18.29,7.77c-5.11,5.21-7.6,11.31-7.6,18.65v59.04h-25.04V120.25h25.04v7.19c7.9-4.77,16.6-7.19,25.88-7.19,8.09,0,15.77,1.88,22.85,5.59,5.93,3.11,11.11,7.25,15.43,12.35,4.24-5.09,9.38-9.24,15.31-12.35,7.07-3.71,14.82-5.59,23.03-5.59,13.87,0,25.92,5.16,35.82,15.35,9.9,10.2,14.92,22.62,14.92,36.94v59.04h-25.04Z"/><path class="cls-1" d="M782.89,229.96v-57.43c0-7.55-2.68-14.17-7.98-19.68-5.33-5.54-11.85-8.35-19.39-8.35s-14.1,2.78-19.49,8.27c-5.42,5.52-8.06,11.99-8.06,19.77v57.43h-21.7v-57.43c0-7.55-2.68-14.17-7.98-19.68-5.33-5.54-11.85-8.35-19.39-8.35s-14.1,2.78-19.49,8.27c-5.42,5.52-8.06,11.99-8.06,19.77v57.43h-21.7V121.87h21.7v8.59c8.31-5.7,17.57-8.59,27.55-8.59,7.81,0,15.23,1.81,22.06,5.39,6.35,3.33,11.8,7.88,16.24,13.55,4.33-5.67,9.73-10.22,16.08-13.54,6.83-3.58,14.31-5.39,22.24-5.39,13.4,0,25.04,4.99,34.6,14.84,9.6,9.89,14.47,21.94,14.47,35.83v57.43h-21.7Z"/><path class="cls-1" d="M782.49,230.13v-57.59c0-7.55-2.67-14.16-7.94-19.65-5.31-5.53-11.54-8.22-19.03-8.22s-13.76,2.66-19.14,8.14c-5.32,5.42-8.02,12.06-8.02,19.73v57.59h-22.49v-57.59c0-7.55-2.67-14.16-7.94-19.65-5.31-5.53-11.54-8.22-19.03-8.22s-13.76,2.66-19.14,8.14c-5.32,5.42-8.02,12.06-8.02,19.73v57.59h-22.49V121.71h22.49v8.2c8.21-5.45,17.34-8.2,27.16-8.2,7.9,0,15.41,1.83,22.32,5.45,6.22,3.26,11.58,7.68,15.98,13.16,4.29-5.48,9.61-9.9,15.83-13.16,6.91-3.62,14.48-5.45,22.5-5.45,13.55,0,25.31,5.04,34.96,14.97,9.62,9.91,14.5,21.97,14.5,35.86v57.59h-22.49Z"/><path class="cls-1" d="M755.52,123.32c13.13,0,24.38,4.82,33.75,14.46,9.36,9.64,14.05,21.23,14.05,34.75v55.97h-19.16v-55.97c0-8.01-2.8-14.93-8.39-20.76-5.6-5.82-12.35-8.73-20.25-8.73s-14.69,2.88-20.34,8.64c-5.66,5.76-8.48,12.71-8.48,20.85v55.97h-19.16v-55.97c0-8.01-2.8-14.93-8.39-20.76-5.6-5.82-12.35-8.73-20.25-8.73s-14.69,2.88-20.34,8.64c-5.66,5.76-8.48,12.71-8.48,20.85v55.97h-19.16V123.32h19.16v9.77c8.63-6.51,18.24-9.77,28.82-9.77,7.66,0,14.84,1.76,21.53,5.26,6.69,3.51,12.28,8.33,16.78,14.46,4.38-6.13,9.91-10.96,16.6-14.46,6.69-3.5,13.92-5.26,21.71-5.26Z"/></g><g><rect class="cls-2" x="814.24" y="208.82" width="111.33" height="22.76"/><path class="cls-1" d="M869.93,144.98c17.47,0,31.69,14.05,31.69,31.33s-14.22,31.33-31.69,31.33-31.69-14.05-31.69-31.33,14.22-31.33,31.69-31.33m0-23.95c-30.73,0-55.64,24.75-55.64,55.28s24.91,55.28,55.64,55.28,55.64-24.75,55.64-55.28-24.91-55.28-55.64-55.28h0Z"/></g></g><g><rect class="cls-2" y="240.85" width="291.91" height="59.69"/><circle class="cls-1" cx="145.95" cy="155.61" r="144.94"/><rect class="cls-2" x="116.11" y="116.11" width="291.91" height="59.69" transform="translate(116.11 408.01) rotate(-90)"/></g></g></g></svg>